{"title":"Pod.Prikritie.S04E10.PDTV.MPEG2-SiSO","uid":9815696,"size":1934105166,"categoryP":"video","categoryS":"tv_shows","magnet":"?xt=urn:btih:93c389a8b20400fd7c814f2a105ba74a4e5f11da&amp;dn=Pod.Prikritie.S04E10.PDTV.MPEG2-SiSO&amp;tr=udp%3A%2F%2Ftracker.openbittorrent.com%3A80&amp;tr=udp%3A%2F%2Fopen.demonii.com%3A1337&amp;tr=udp%3A%2F%2Ftracker.coppersurfer.tk%3A6969&amp;tr=udp%3A%2F%2Fexodus.desync.com%3A6969","seeders":0,"leechers":0,"uploader":"Iorty","files":-1,"time":1395619708,"description":"General\n\nComplete name                            : Pod.Prikritie.S04E10.PDTV.MPEG2-SiSO.mpg\n\nFormat                                   : MPEG-PS\n\nFile size                                : 1.80 GiB\n\nDuration                                 : 53mn 52s\n\nOverall bit rate mode                    : Variable\n\nOverall bit rate                         : 4 786 Kbps\n\nSoure                                    : PDTV BNT1\n\n\n\nVideo\n\nID                                       : 224 (0xE0)\n\nFormat                                   : MPEG Video\n\nFormat version                           : Version 2\n\nFormat profile                           : Main@Main\n\nFormat settings, BVOP                    : Yes\n\nFormat settings, Matrix                  : Custom\n\nFormat settings, GOP                     : M=3, N=15\n\nDuration                                 : 53mn 52s\n\nBit rate mode                            : Variable\n\nBit rate                                 : 4 371 Kbps\n\nMaximum bit rate                         : 15.0 Mbps\n\nWidth                                    : 720 pixels\n\nHeight                                   : 576 pixels\n\nDisplay aspect ratio                     : 16:9\n\nActive Format Description                : Full frame 16:9 image\n\nFrame rate                               : 25.000 fps\n\nStandard                                 : PAL\n\nColor space                              : YUV\n\nChroma subsampling                       : 4:2:0\n\nBit depth                                : 8 bits\n\nScan type                                : Interlaced\n\nScan order                               : Top Field First\n\nCompression mode                         : Lossy\n\nBits/(Pixel*Frame)                       : 0.422\n\nTime code of first frame                 : 00:00:00:00\n\nTime code source                         : Group of pictures header\n\nStream size                              : 1.64 GiB (91%)\n\n\n\nAudio\n\nID                                       : 192 (0xC0)\n\nFormat                                   : MPEG Audio\n\nFormat version                           : Version 1\n\nFormat profile                           : Layer 2\n\nEmphasis                                 : 50/15ms\n\nDuration                                 : 53mn 52s\n\nBit rate mode                            : Constant\n\nBit rate                                 : 320 Kbps\n\nChannel(s)                               : 2 channels\n\nSampling rate                            : 48.0 KHz\n\nCompression mode                         : Lossy\n\nStream size                              : 123 MiB (7%)","torrent":{"xt":"urn:btih:93c389a8b20400fd7c814f2a105ba74a4e5f11da","amp;dn":"Pod.Prikritie.S04E10.PDTV.MPEG2-SiSO","amp;tr":["udp%3A%2F%2Ftracker.openbittorrent.com%3A80","udp%3A%2F%2Fopen.demonii.com%3A1337","udp%3A%2F%2Ftracker.coppersurfer.tk%3A6969","udp%3A%2F%2Fexodus.desync.com%3A6969"],"infoHash":"93c389a8b20400fd7c814f2a105ba74a4e5f11da","infoHashBuffer":{"type":"Buffer","data":[147,195,137,168,178,4,0,253,124,129,79,42,16,91,167,74,78,95,17,218]},"announce":[],"urlList":[]}}